<svg xmlns="http://www.w3.org/2000/svg" viewBox="0 0 91.55 91.55"><defs><style>.cls-1{fill:#39b5a4;}.cls-2{fill:#fff;}</style></defs><g id="Capa_2" data-name="Capa 2"><g id="Capa_1-2" data-name="Capa 1"><rect class="cls-1" width="91.55" height="91.55" rx="45.78"/><path class="cls-2" d="M71.3,45.64c-.62,3-1.06,6.13-1.92,9.1-.45,1.57-.31,2.6.91,3.6,2.85,2.35,3.7,5.46,3.36,9-.37,3.7-2.12,6.6-5.49,8.11-3.63,1.64-7.71,1.74-10.49-1.18-3-3.16-6-3-9.88-2.67C28,73.48,14.11,53.57,22.17,35.18c4.6-10.49,15.23-16.73,26.08-15.33C59.5,21.31,68.87,30.24,70.62,41.23c.23,1.43.24,2.88.35,4.32ZM69.37,64.48l.63-.76a18.24,18.24,0,0,0-2.6-3.27c-2.35-1.93-2.76-3.94-1.56-6.8a19.77,19.77,0,0,0,.93-12.33c-1.59-7-9-14.8-19.21-13.95-9.35.78-16,6.25-17.61,15.6-1,5.79.57,11,5.16,14.82s10,5.12,15.82,3.09a15.09,15.09,0,0,0,9.85-13.36,13.4,13.4,0,0,0-8.19-12.64c-4.9-2.12-10.93-.9-14,2.84a11.51,11.51,0,0,0-.48,13.63,10.17,10.17,0,0,0,10.34,3.79,7.69,7.69,0,0,0,6-6.71c.32-2.39-.23-4.44-2.34-5.78a7.18,7.18,0,0,0-7-.45,2.88,2.88,0,0,0-1.64,4C44,47.7,46,48.25,48,47.45c-.33-.28-.68-.45-.84-.73-.41-.72-.74-1.49-1.09-2.24a7.87,7.87,0,0,1,2.32-1,3.55,3.55,0,0,1,3.58,3.18,4.47,4.47,0,0,1-3,4.85c-3,.91-7.37-.87-8.69-3.56C38.8,45,40,41.07,43,39.11c5.13-3.38,13.81.41,14.79,6.47C58.83,52,53.25,58.77,46.74,59A13.88,13.88,0,0,1,32.63,47.2c-1-7.44,3.91-15,10.67-16.57a17.14,17.14,0,0,1,20.46,20.5c-.39,1.69-1.29,3.26-1.69,4.95a3.24,3.24,0,0,0,.43,2.53,55.21,55.21,0,0,0,4.9,4.77A10.18,10.18,0,0,0,69.37,64.48Zm-6.16,8.4-.44.13c-2.2-2.59-4.43-5.16-6.57-7.81-1.06-1.3-2.07-1.51-3.72-.93a19.55,19.55,0,0,1-17.51-2c-11.59-7.19-12-25.16-.74-33.86,2.13-1.64,4.57-2.89,6.82-4.29a1.73,1.73,0,0,0-.35,0c-11,1.87-19.12,13.6-17.06,24.6C26,61.53,36.36,70.09,47.89,67.85c4.85-.95,8.46-1,11.63,3.11C60.28,72,62,72.26,63.21,72.88Zm5.72-4C67,67.28,65.16,65.9,63.42,64.4c-1.15-1-2.1-2.19-3.24-3.17-.41-.35-1.13-.33-1.71-.47.09.58,0,1.36.3,1.73,1.72,1.9,3.53,3.73,5.36,5.53A4.36,4.36,0,0,0,68.93,68.83Z"/></g></g></svg>
