<svg xmlns="http://www.w3.org/2000/svg" viewBox="0 0 177.87 39.49"><defs><style>.cls-1{fill:#39b5a4;}</style></defs><g id="Capa_2" data-name="Capa 2"><g id="Capa_1-2" data-name="Capa 1"><path class="cls-1" d="M82.72,36.34A3.33,3.33,0,0,1,79.29,33a3.35,3.35,0,0,1,3.43-3.39,3.33,3.33,0,0,1,2,.65,3,3,0,0,1,1.17,1.69H84.45a1.56,1.56,0,0,0-.68-.76,2.12,2.12,0,0,0-2.55.31,2.22,2.22,0,0,0,0,3,2.15,2.15,0,0,0,2.55.32,1.58,1.58,0,0,0,.68-.77H85.9a2.92,2.92,0,0,1-1.17,1.69A3.27,3.27,0,0,1,82.72,36.34Z"/><path class="cls-1" d="M90.59,35.64a2.45,2.45,0,0,1-3.43,0,2.41,2.41,0,0,1,1.71-4.12,2.41,2.41,0,0,1,1.72,4.12Zm-1.72-.49a1.08,1.08,0,0,0,.82-.34,1.23,1.23,0,0,0,.33-.88,1.22,1.22,0,0,0-.33-.88,1.14,1.14,0,0,0-1.64,0,1.22,1.22,0,0,0-.33.88,1.23,1.23,0,0,0,.33.88A1.08,1.08,0,0,0,88.87,35.15Z"/><path class="cls-1" d="M92.21,36.23V31.62h1.27v.74a1.17,1.17,0,0,1,.44-.57,1.2,1.2,0,0,1,.7-.23,1.4,1.4,0,0,1,.43.06V32.9a1.71,1.71,0,0,0-.57-.1.9.9,0,0,0-.73.33,1.38,1.38,0,0,0-.27.9v2.2Z"/><path class="cls-1" d="M95.86,36.23V31.62h1.27v.74a1.11,1.11,0,0,1,.44-.57,1.17,1.17,0,0,1,.7-.23,1.44,1.44,0,0,1,.43.06V32.9a1.81,1.81,0,0,0-.58-.1.88.88,0,0,0-.72.33,1.38,1.38,0,0,0-.27.9v2.2Z"/><path class="cls-1" d="M101.47,36.34a2.41,2.41,0,1,1,0-4.82,2.37,2.37,0,0,1,1.76.72,2.56,2.56,0,0,1,.65,2h-3.61a1.14,1.14,0,0,0,.36.73,1.32,1.32,0,0,0,.89.29,1.34,1.34,0,0,0,.61-.14.78.78,0,0,0,.37-.37h1.32a2.12,2.12,0,0,1-.85,1.16A2.59,2.59,0,0,1,101.47,36.34Zm0-3.8a1.18,1.18,0,0,0-.73.23,1.08,1.08,0,0,0-.38.62h2.17a1,1,0,0,0-.4-.64A1.13,1.13,0,0,0,101.44,32.54Z"/><path class="cls-1" d="M106.68,36.34a2,2,0,0,1-1.54-.71,2.61,2.61,0,0,1,0-3.4,2,2,0,0,1,1.54-.71,1.74,1.74,0,0,1,.8.18,1.56,1.56,0,0,1,.53.43V29.31h1.27v6.92H108v-.51a1.56,1.56,0,0,1-.53.43A1.75,1.75,0,0,1,106.68,36.34Zm-.57-1.51a1.18,1.18,0,0,0,1.68,0,1.24,1.24,0,0,0,.32-.9,1.28,1.28,0,0,0-.32-.91,1.18,1.18,0,0,0-1.68,0,1.28,1.28,0,0,0-.32.91A1.24,1.24,0,0,0,106.11,34.83Z"/><path class="cls-1" d="M112.19,36.34a1.56,1.56,0,0,1-1.28-.56,2.22,2.22,0,0,1-.46-1.48V31.62h1.26v2.46c0,.74.27,1.1.79,1.1a.84.84,0,0,0,.7-.33,1.59,1.59,0,0,0,.25-1V31.62h1.26v4.61h-1.26v-.52A1.41,1.41,0,0,1,112.19,36.34Z"/><path class="cls-1" d="M115.93,36.23V31.62h1.27v.74a1.11,1.11,0,0,1,.44-.57,1.17,1.17,0,0,1,.7-.23,1.4,1.4,0,0,1,.43.06V32.9a1.8,1.8,0,0,0-.57-.1.89.89,0,0,0-.73.33,1.38,1.38,0,0,0-.27.9v2.2Z"/><path class="cls-1" d="M119.58,36.23V31.62h1.27v4.61Zm.21-5.17,1-1.75h1.47l-1.51,1.75Z"/><path class="cls-1" d="M123.94,36.34a2,2,0,0,1-1.54-.71,2.61,2.61,0,0,1,0-3.4,1.94,1.94,0,0,1,1.54-.71,1.7,1.7,0,0,1,.79.18,1.6,1.6,0,0,1,.54.43v-.51h1.26v4.61h-1.26v-.51a1.6,1.6,0,0,1-.54.43A1.71,1.71,0,0,1,123.94,36.34Zm-.58-1.51a1.2,1.2,0,0,0,1.69,0,1.29,1.29,0,0,0,.32-.9,1.33,1.33,0,0,0-.32-.91,1.2,1.2,0,0,0-1.69,0,1.33,1.33,0,0,0-.32.91A1.29,1.29,0,0,0,123.36,34.83Z"/><path class="cls-1" d="M131.74,36.34a2,2,0,0,1-1.54-.71,2.61,2.61,0,0,1,0-3.4,2,2,0,0,1,1.54-.71,1.7,1.7,0,0,1,.79.18,1.51,1.51,0,0,1,.54.43V29.31h1.26v6.92h-1.26v-.51a1.51,1.51,0,0,1-.54.43A1.71,1.71,0,0,1,131.74,36.34Zm-.58-1.51a1.09,1.09,0,0,0,.85.35,1.05,1.05,0,0,0,.84-.35,1.29,1.29,0,0,0,.32-.9,1.33,1.33,0,0,0-.32-.91,1.09,1.09,0,0,0-.84-.35,1.12,1.12,0,0,0-.85.35,1.33,1.33,0,0,0-.32.91A1.29,1.29,0,0,0,131.16,34.83Z"/><path class="cls-1" d="M137.69,36.34a2.34,2.34,0,0,1-2.42-2.42,2.45,2.45,0,0,1,4.19-1.68,2.52,2.52,0,0,1,.64,2h-3.6a1.14,1.14,0,0,0,.36.73,1.31,1.31,0,0,0,.89.29,1.27,1.27,0,0,0,.6-.14.8.8,0,0,0,.38-.37h1.32a2.12,2.12,0,0,1-.85,1.16A2.59,2.59,0,0,1,137.69,36.34Zm0-3.8a1.18,1.18,0,0,0-.73.23,1.08,1.08,0,0,0-.38.62h2.17a1,1,0,0,0-.4-.64A1.13,1.13,0,0,0,137.66,32.54Z"/><path class="cls-1" d="M145.36,36.34a2.49,2.49,0,0,1-1.8-.64,2.07,2.07,0,0,1-.72-1.5h1.34a1,1,0,0,0,.39.67,1.3,1.3,0,0,0,.79.24,1.15,1.15,0,0,0,.67-.18.57.57,0,0,0,.26-.49c0-.36-.29-.62-.88-.79l-.69-.2a2.77,2.77,0,0,1-1.25-.72,1.9,1.9,0,0,1,.13-2.64,2.35,2.35,0,0,1,1.6-.52,2.24,2.24,0,0,1,1.63.6,2,2,0,0,1,.67,1.39h-1.33a.94.94,0,0,0-.37-.57,1.06,1.06,0,0,0-.6-.18,1,1,0,0,0-.6.16.54.54,0,0,0-.25.45.59.59,0,0,0,.2.47,1.43,1.43,0,0,0,.62.31l.77.21a2,2,0,0,1,1.7,2,1.79,1.79,0,0,1-.63,1.4A2.48,2.48,0,0,1,145.36,36.34Z"/><path class="cls-1" d="M150.73,36.34a2.33,2.33,0,0,1-1.74-.69,2.45,2.45,0,0,1,3.51-3.41,2.53,2.53,0,0,1,.65,2h-3.6a1,1,0,0,0,.36.73,1.45,1.45,0,0,0,1.49.15.74.74,0,0,0,.37-.37h1.32a2.06,2.06,0,0,1-.84,1.16A2.62,2.62,0,0,1,150.73,36.34Zm0-3.8a1.13,1.13,0,0,0-.72.23,1,1,0,0,0-.38.62h2.17a1,1,0,0,0-.41-.64A1.13,1.13,0,0,0,150.7,32.54Z"/><path class="cls-1" d="M156.22,38.26a2.47,2.47,0,0,1-1.57-.49,1.79,1.79,0,0,1-.68-1.25h1.24a1,1,0,0,0,1,.68,1,1,0,0,0,.75-.28,1.06,1.06,0,0,0,.3-.81v-.54a1.49,1.49,0,0,1-.56.44,1.85,1.85,0,0,1-.78.17,2,2,0,0,1-1.54-.68,2.45,2.45,0,0,1,0-3.3,2,2,0,0,1,1.54-.68,1.73,1.73,0,0,1,.79.17,1.43,1.43,0,0,1,.55.44v-.51h1.26V36a2.15,2.15,0,0,1-.67,1.74A2.49,2.49,0,0,1,156.22,38.26Zm-.83-3.56a1.23,1.23,0,1,0-.34-.85A1.16,1.16,0,0,0,155.39,34.7Z"/><path class="cls-1" d="M161.46,36.34a1.56,1.56,0,0,1-1.28-.56,2.28,2.28,0,0,1-.46-1.48V31.62H161v2.46c0,.74.26,1.1.78,1.1a.83.83,0,0,0,.7-.33,1.59,1.59,0,0,0,.25-1V31.62H164v4.61h-1.27v-.52A1.41,1.41,0,0,1,161.46,36.34Z"/><path class="cls-1" d="M165.21,36.23V31.62h1.26v.74a1.17,1.17,0,0,1,.44-.57,1.2,1.2,0,0,1,.71-.23,1.33,1.33,0,0,1,.42.06V32.9a1.71,1.71,0,0,0-.57-.1.88.88,0,0,0-.72.33,1.33,1.33,0,0,0-.28.9v2.2Z"/><path class="cls-1" d="M172.53,35.64a2.46,2.46,0,0,1-3.44,0,2.41,2.41,0,0,1,0-3.42,2.46,2.46,0,0,1,3.44,0,2.41,2.41,0,0,1,0,3.42Zm-1.72-.49a1.08,1.08,0,0,0,.82-.34,1.23,1.23,0,0,0,.33-.88,1.22,1.22,0,0,0-.33-.88,1.05,1.05,0,0,0-.82-.35,1,1,0,0,0-.82.35,1.22,1.22,0,0,0-.33.88,1.23,1.23,0,0,0,.33.88A1.06,1.06,0,0,0,170.81,35.15Z"/><path class="cls-1" d="M175.94,36.34a2.34,2.34,0,0,1-1.47-.45,1.44,1.44,0,0,1-.62-1.12h1.32a.58.58,0,0,0,.26.44.89.89,0,0,0,.54.16c.4,0,.6-.13.6-.37a.31.31,0,0,0-.13-.28,1.22,1.22,0,0,0-.45-.18l-.87-.23a1.59,1.59,0,0,1-.88-.53,1.45,1.45,0,0,1-.29-.9,1.2,1.2,0,0,1,.5-1,2.17,2.17,0,0,1,1.36-.38,2.1,2.1,0,0,1,1.29.39,1.42,1.42,0,0,1,.57,1.07H176.4a.55.55,0,0,0-.61-.48.76.76,0,0,0-.4.1.28.28,0,0,0-.15.26c0,.2.18.34.53.42l.81.22a1.86,1.86,0,0,1,1,.52,1.37,1.37,0,0,1,.31.91,1.18,1.18,0,0,1-.54,1A2.33,2.33,0,0,1,175.94,36.34Z"/><path class="cls-1" d="M57,24.4a9.29,9.29,0,0,1-6.83-2.83,9.29,9.29,0,0,1-2.83-6.83,9.28,9.28,0,0,1,2.83-6.83,9.64,9.64,0,0,1,13.66,0,9.32,9.32,0,0,1,2.83,6.82,9.53,9.53,0,0,1-1.37,5l5.4,4.39H64.79l-2-1.6A9.22,9.22,0,0,1,57,24.4Zm0-4a5.2,5.2,0,0,0,2.42-.61l-2.66-2.16,2.37-2.89L62,17a5.83,5.83,0,0,0,.47-2.26,5.51,5.51,0,0,0-1.58-4,5.28,5.28,0,0,0-7.69,0,5.48,5.48,0,0,0-1.6,4,5.48,5.48,0,0,0,1.6,4A5.15,5.15,0,0,0,57,20.35Z"/><path class="cls-1" d="M81,22.39a7,7,0,0,1-9.79,0,6.6,6.6,0,0,1-2-4.89,6.58,6.58,0,0,1,2-4.88,7,7,0,0,1,9.79,0,6.58,6.58,0,0,1,2,4.88A6.6,6.6,0,0,1,81,22.39Zm-7-2.6a3,3,0,0,0,4.19,0A3.19,3.19,0,0,0,79,17.5a3.21,3.21,0,0,0-.83-2.29,3,3,0,0,0-4.19,0,3.21,3.21,0,0,0-.83,2.29A3.19,3.19,0,0,0,74,19.79Z"/><path class="cls-1" d="M85.43,24.08V10.92h4v1.34a4.16,4.16,0,0,1,3.66-1.63,4.64,4.64,0,0,1,3.75,1.61,6.37,6.37,0,0,1,1.36,4.24v7.6h-4V17.16c0-1.95-.71-2.92-2.13-2.92a2.39,2.39,0,0,0-1.92.87,3.91,3.91,0,0,0-.74,2.58v6.39Z"/><path class="cls-1" d="M102.59,24.08V14.37H100V10.92h2.63V9.47a5,5,0,0,1,1.51-3.85,5.27,5.27,0,0,1,3.78-1.44,8.33,8.33,0,0,1,2.37.29V8a3.8,3.8,0,0,0-1.42-.23,2.4,2.4,0,0,0-1.74.52,2.35,2.35,0,0,0-.53,1.71v.95h3.69v3.45h-3.69v9.71ZM114.25,9.13a2.4,2.4,0,0,1-1.74-.72,2.36,2.36,0,0,1-.73-1.75,2.35,2.35,0,0,1,.73-1.75,2.37,2.37,0,0,1,1.74-.73,2.41,2.41,0,0,1,1.78.73,2.38,2.38,0,0,1,.72,1.75A2.39,2.39,0,0,1,116,8.41,2.44,2.44,0,0,1,114.25,9.13Zm-2,14.95V10.92h4V24.08Z"/><path class="cls-1" d="M124.83,24.37a5.56,5.56,0,0,1-4.33-2,7.13,7.13,0,0,1-1.77-4.85,7.12,7.12,0,0,1,1.77-4.84,5.57,5.57,0,0,1,4.33-2,4.39,4.39,0,0,1,3.58,1.61V10.92h4V24.08h-4V22.77A4.38,4.38,0,0,1,124.83,24.37Zm-1.27-4.52a3,3,0,0,0,4.34,0,3.41,3.41,0,0,0,.83-2.35,3.38,3.38,0,0,0-.83-2.34,3,3,0,0,0-4.34,0,3.34,3.34,0,0,0-.83,2.34A3.36,3.36,0,0,0,123.56,19.85Z"/><path class="cls-1" d="M135.65,24.08V10.92h4v1.34a4.14,4.14,0,0,1,3.66-1.63A4.67,4.67,0,0,1,147,12.24a6.36,6.36,0,0,1,1.35,4.24v7.6h-4V17.16c0-1.95-.71-2.92-2.13-2.92a2.41,2.41,0,0,0-1.93.87,3.91,3.91,0,0,0-.73,2.58v6.39Z"/><path class="cls-1" d="M151,24.08V21l5.76-6.48H151V10.92h10.85v3.13l-5.76,6.45h6v3.58Z"/><path class="cls-1" d="M169.87,24.37a5.56,5.56,0,0,1-4.33-2,7.13,7.13,0,0,1-1.77-4.85,7.12,7.12,0,0,1,1.77-4.84,5.57,5.57,0,0,1,4.33-2,4.38,4.38,0,0,1,3.58,1.61V10.92h4V24.08h-4V22.77A4.37,4.37,0,0,1,169.87,24.37Zm-1.27-4.52a3,3,0,0,0,4.34,0,3.41,3.41,0,0,0,.83-2.35,3.38,3.38,0,0,0-.83-2.34,3,3,0,0,0-4.34,0,3.34,3.34,0,0,0-.83,2.34A3.36,3.36,0,0,0,168.6,19.85Z"/><path class="cls-1" d="M35.69,18c-.43,2.11-.74,4.25-1.33,6.31A2,2,0,0,0,35,26.82a6.72,6.72,0,0,1,2.32,6.25,6.44,6.44,0,0,1-3.8,5.63c-2.51,1.14-5.35,1.2-7.27-.82-2.09-2.19-4.13-2.11-6.86-1.85C5.64,37.32-4,23.52,1.62,10.76A17.49,17.49,0,0,1,19.71.14,18.2,18.2,0,0,1,35.22,15c.15,1,.16,2,.24,3ZM34.35,31.08l.44-.53A13.34,13.34,0,0,0,33,28.29c-1.63-1.34-1.92-2.74-1.09-4.72A13.67,13.67,0,0,0,32.55,15,12.88,12.88,0,0,0,19.23,5.35C12.74,5.89,8.12,9.69,7,16.17a10.38,10.38,0,0,0,3.58,10.27,10.74,10.74,0,0,0,11,2.15,10.47,10.47,0,0,0,6.83-9.27,9.29,9.29,0,0,0-5.67-8.77c-3.4-1.46-7.59-.62-9.73,2A8,8,0,0,0,12.65,22a7,7,0,0,0,7.18,2.62A5.32,5.32,0,0,0,24,20a3.75,3.75,0,0,0-1.62-4,5,5,0,0,0-4.85-.31,2,2,0,0,0-1.14,2.76c.41,1.05,1.76,1.43,3.12.87-.22-.19-.47-.31-.58-.5-.28-.5-.51-1-.75-1.55a5.19,5.19,0,0,1,1.61-.71,2.44,2.44,0,0,1,2.48,2.2,3.09,3.09,0,0,1-2.07,3.36,5.64,5.64,0,0,1-6-2.46,5,5,0,0,1,1.92-6.12c3.56-2.35,9.58.29,10.25,4.49a8.39,8.39,0,0,1-7.66,9.28A9.63,9.63,0,0,1,8.87,19.1c-.66-5.16,2.72-10.41,7.4-11.49A11.89,11.89,0,0,1,30.46,21.83c-.27,1.17-.89,2.26-1.18,3.43a2.24,2.24,0,0,0,.3,1.75A40.86,40.86,0,0,0,33,30.32,7,7,0,0,0,34.35,31.08Zm-4.27,5.83-.31.09c-1.52-1.8-3.07-3.58-4.55-5.41a2,2,0,0,0-2.58-.65,13.56,13.56,0,0,1-12.15-1.41c-8-5-8.31-17.45-.51-23.48a55.78,55.78,0,0,1,4.73-3,.56.56,0,0,0-.24,0C6.85,4.36,1.21,12.49,2.64,20.12,4.3,29,11.46,35,19.45,33.42c3.37-.66,5.87-.72,8.07,2.16C28,36.27,29.21,36.48,30.08,36.91Zm4-2.81c-1.35-1.08-2.62-2-3.83-3.07-.79-.68-1.45-1.52-2.24-2.2a3.12,3.12,0,0,0-1.19-.33c.06.41,0,.95.21,1.2,1.19,1.32,2.45,2.59,3.72,3.84A3,3,0,0,0,34.05,34.1Z"/></g></g></svg>
